<svg width="17" height="17" viewBox="0 0 17 17" fill="none" xmlns="http://www.w3.org/2000/svg">
<g clip-path="url(#clip0_2091_2186)">
<path d="M16.6258 9.74411L14.5286 7.56559L16.6258 5.75781V9.74411Z" fill="white"/>
<path d="M2.4748 7.56559L0.375 9.74665V5.75781L2.4748 7.56559Z" fill="white"/>
<path d="M16.625 11.7245V13.7304C16.625 14.2154 16.2314 14.6089 15.7465 14.6089H1.25352C0.768523 14.6089 0.375 14.2154 0.375 13.7304V11.7245L3.51579 8.46436L7.10352 11.5544C7.47676 11.8743 7.97184 12.0521 8.5 12.0521C9.02816 12.0521 9.52578 11.8743 9.89902 11.5544L13.4841 8.46436L16.625 11.7245Z" fill="white"/>
<path d="M16.625 3.26709V4.14561L8.96205 10.7472C8.71576 10.9604 8.28415 10.9604 8.03786 10.7472L0.375 4.14561V3.26709C0.375 2.78216 0.768491 2.39111 1.25352 2.39111H15.7465C16.2314 2.39111 16.625 2.78216 16.625 3.26709Z" fill="white"/>
</g>
<defs>
<clipPath id="clip0_2091_2186">
<rect width="16.25" height="16.25" fill="white" transform="translate(0.375 0.375)"/>
</clipPath>
</defs>
</svg>
