<svg width="21" height="21" viewBox="0 0 21 21" fill="none" xmlns="http://www.w3.org/2000/svg">
<g clip-path="url(#clip0_2052_1672)">
<path d="M3.88883 0.889903C2.4459 1.82572 2.16244 4.75091 2.70721 7.13502C3.13147 8.99164 4.03349 11.4821 5.55451 13.8273C6.98538 16.0336 8.98166 18.0118 10.5038 19.1564C12.4585 20.6261 15.245 21.5603 16.6879 20.6244C17.4175 20.1513 18.5015 18.8584 18.551 18.6264C18.551 18.6264 17.9154 17.6463 17.7759 17.4312L15.6442 14.1444C15.4858 13.9002 14.4924 14.1234 13.9877 14.4093C13.307 14.795 12.6801 15.8299 12.6801 15.8299C12.2133 16.0996 11.8224 15.8309 11.0055 15.4549C10.0016 14.993 8.8728 13.5578 7.97444 12.2579C7.15392 10.9075 6.30379 9.29154 6.29148 8.1865C6.28135 7.28736 6.19546 6.82085 6.63208 6.50461C6.63208 6.50461 7.83269 6.35425 8.46248 5.89004C8.92928 5.54583 9.53824 4.72987 9.37984 4.48558L7.24817 1.19883C7.10868 0.983747 6.47302 0.00363726 6.47302 0.00363726C6.24099 -0.0457866 4.61845 0.416706 3.88883 0.889903Z" fill="#1C1F27"/>
</g>
<defs>
<clipPath id="clip0_2052_1672">
<rect width="21" height="21" fill="white"/>
</clipPath>
</defs>
</svg>
