<svg width="22" height="22" viewBox="0 0 22 22" fill="none" xmlns="http://www.w3.org/2000/svg">
<g clip-path="url(#clip0_105_261)">
<path d="M4.01953 9.3923H11.8169L15.2413 5.96812L15.2734 5.93594V5.37305H4.01953V9.3923Z" fill="#E9B628"/>
<path d="M17.2826 18.6363H2.00965V3.36316H17.2826V3.92997L19.2922 2.43057V1.35352H0V20.646H19.2922V12.4265L17.2826 14.4361V18.6363Z" fill="#E9B628"/>
<path d="M9.8555 11.8037H4.01953V13.0095H9.19623C9.39333 12.5836 9.62236 12.1734 9.8555 11.8037Z" fill="#E9B628"/>
<path d="M4.01953 15.019V16.2248H8.78627C8.64555 15.8469 8.60142 15.437 8.62948 15.019H4.01953Z" fill="#E9B628"/>
<path d="M12.5008 11.5497C11.8347 12.2158 10.1112 15.0199 10.7773 15.6863C11.4438 16.3528 14.2475 14.6289 14.9139 13.9629L17.6534 11.2228L15.2405 8.81006L12.5008 11.5497Z" fill="#E9B628"/>
<path d="M21.5006 4.96344C20.8341 4.29734 19.754 4.29734 19.0879 4.96344L15.793 8.2585L18.2059 10.6712L21.5006 7.37614C22.1667 6.71008 22.1667 5.62989 21.5006 4.96344ZM17.1948 8.69536L16.7807 8.28166L19.0875 5.97493L19.5008 6.3882L17.1948 8.69536Z" fill="#E9B628"/>
</g>
<defs>
<clipPath id="clip0_105_261">
<rect width="22" height="22" rx="11" fill="white"/>
</clipPath>
</defs>
</svg>
