<svg width="22" height="22" viewBox="0 0 22 22" fill="none" xmlns="http://www.w3.org/2000/svg">
<g clip-path="url(#clip0_105_286)">
<path d="M7.78406 9.68283L10.5696 11.8317L10.6083 11.854L10.6257 11.8637C10.8666 11.9978 11.1854 11.9267 11.398 11.6927L11.4166 11.6749L14.8306 7.63576C15.0249 7.4179 15.0282 7.10428 14.8391 6.93614C14.6495 6.76762 14.3387 6.80805 14.1451 7.02586L10.9539 10.435L8.49017 8.7193C8.25977 8.54957 7.91426 8.62838 7.71901 8.8947C7.52419 9.16024 7.55285 9.51349 7.78406 9.68283Z" fill="#E9B628"/>
<path d="M4.31559 10.9998C4.31559 10.8522 4.31882 10.7048 4.33441 10.5601H2.5858C2.5751 10.7047 2.57227 10.8522 2.57227 10.9998C2.57227 11.1501 2.5751 11.2953 2.5858 11.4403H4.33441C4.31882 11.2953 4.31559 11.1481 4.31559 10.9998Z" fill="#E9B628"/>
<path d="M7.40852 5.36236C7.57382 5.25769 7.74256 5.15908 7.91391 5.07138L7.9806 5.03902L7.1092 3.52588C6.89117 3.63579 6.67878 3.75782 6.47266 3.89163L7.34445 5.40559L7.40852 5.36236Z" fill="#E9B628"/>
<path d="M3.52637 7.10881L5.04016 7.98017L5.40655 7.34445L3.89216 6.47266C3.75836 6.67878 3.6365 6.89057 3.52637 7.10881Z" fill="#E9B628"/>
<path d="M16.9285 14.0858C16.8376 14.2576 16.742 14.4257 16.6344 14.5886L16.5908 14.6524L18.105 15.5242C18.239 15.318 18.361 15.1091 18.4738 14.8912L16.9634 14.0166L16.9285 14.0858Z" fill="#E9B628"/>
<path d="M5.07208 14.0829L5.03711 14.0166L3.52637 14.888C3.63388 15.1059 3.75831 15.318 3.89212 15.5242L5.40651 14.6524L5.36242 14.5886C5.25801 14.4256 5.15939 14.2575 5.07208 14.0829Z" fill="#E9B628"/>
<path d="M7.40852 16.6344L7.34445 16.5908L6.47266 18.1052C6.67882 18.239 6.89117 18.3638 7.1092 18.4742L7.9806 16.9602L7.91391 16.9279C7.74251 16.8406 7.57377 16.7419 7.40852 16.6344Z" fill="#E9B628"/>
<path d="M14.0166 5.03657L14.653 5.40559L15.5245 3.89163C15.3186 3.75782 15.1089 3.63579 14.8916 3.52588L14.0166 5.03657Z" fill="#E9B628"/>
<path d="M10.5605 17.6651V19.4116C10.7057 19.4245 10.8527 19.4273 11.0001 19.4273C11.148 19.4273 11.2953 19.4245 11.44 19.4116V17.6651V17.647H10.5605V17.6651Z" fill="#E9B628"/>
<path d="M11.44 4.33441V2.58804C11.2953 2.57506 11.148 2.57227 11.0001 2.57227C10.8527 2.57227 10.7057 2.57506 10.5605 2.58804V4.33441V4.35259H11.44V4.33441Z" fill="#E9B628"/>
<path d="M14.0166 16.9631L14.8916 18.4742C15.1089 18.3606 15.3186 18.239 15.5245 18.1052L14.653 16.5908L14.0166 16.9631Z" fill="#E9B628"/>
<path d="M18.4738 7.10881C18.3633 6.89057 18.239 6.67882 18.105 6.47266L16.5908 7.34445L16.9604 7.98017L18.4738 7.10881Z" fill="#E9B628"/>
<path d="M19.414 10.5601H17.6656H17.6475V11.4403H17.6656H19.414C19.4249 11.2953 19.4274 11.1481 19.4274 10.9998C19.4274 10.8522 19.4249 10.7047 19.414 10.5601Z" fill="#E9B628"/>
<path d="M10.9998 0C4.92426 0.000386719 0.000386719 4.92465 0 11C0.000386719 17.0754 4.92426 21.9996 10.9998 22C17.0753 21.9996 21.9992 17.0754 21.9996 11C21.9992 4.92465 17.0753 0.000386719 10.9998 0ZM10.9998 20.5806C8.35175 20.5801 5.96093 19.5095 4.22529 17.7745C2.49043 16.0383 1.4196 13.6476 1.41939 11C1.4196 8.35235 2.49043 5.96136 4.22525 4.22589C5.96093 2.49038 8.35175 1.41977 10.9998 1.41939C13.6474 1.41982 16.0382 2.49043 17.7743 4.22589C19.5091 5.96136 20.58 8.35192 20.5801 11C20.5799 13.6476 19.5091 16.0383 17.7743 17.7745C16.0382 19.5096 13.6474 20.5802 10.9998 20.5806Z" fill="#E9B628"/>
</g>
<defs>
<clipPath id="clip0_105_286">
<rect width="22" height="22" rx="11" fill="white"/>
</clipPath>
</defs>
</svg>
