<svg width="22" height="22" viewBox="0 0 22 22" fill="none" xmlns="http://www.w3.org/2000/svg">
<path d="M1.65022 2.71391L10.1344 0.12577C10.4082 0.0423672 10.6997 0 11.0006 0C11.3016 0 11.5931 0.0423672 11.8669 0.12577L20.3513 2.71391C20.4998 2.75962 20.5957 2.86468 20.5957 2.98246C20.5957 3.1002 20.4998 3.2053 20.3512 3.25102L16.4238 4.44898V7.76737C16.4228 9.48312 15.8395 11.1311 14.7813 12.4072C14.2729 13.0197 13.6876 13.5061 13.0418 13.8524C12.3569 14.2203 11.6467 14.4068 10.931 14.4068C10.2158 14.4068 9.50551 14.2203 8.82016 13.8524C7.84919 13.3306 7.01375 12.4926 6.4042 11.4293C5.7726 10.3258 5.43865 9.0594 5.43834 7.76737V4.40662L3.49427 3.81348V6.57173C3.76067 6.60541 3.96722 6.83362 3.96722 7.10884C3.96722 7.34834 3.81043 7.55588 3.58601 7.62493L3.99833 10.3455C4.00843 10.4132 3.98875 10.4816 3.94411 10.534C3.89933 10.5857 3.83437 10.6157 3.76587 10.6157H2.20727C2.13886 10.6157 2.07389 10.5857 2.02903 10.5336C1.98452 10.4819 1.96475 10.4132 1.97481 10.3452L2.38713 7.62493C2.16271 7.55588 2.00592 7.34839 2.00592 7.10884C2.00592 6.83362 2.21259 6.60541 2.47904 6.57173V3.50384L1.65009 3.25097C1.50155 3.20525 1.40556 3.09985 1.40556 2.98242C1.4056 2.86503 1.50159 2.75958 1.65022 2.71391ZM10.931 12.7991C11.3785 12.7991 11.8331 12.677 12.2823 12.4358C12.9782 12.0642 13.6104 11.4233 14.0629 10.6307C14.2714 10.2664 14.4408 9.87005 14.5668 9.45141C11.951 8.98838 10.334 7.32965 9.42181 5.97223C8.98172 6.86495 8.23325 7.98119 7.09174 8.49226C7.22585 9.56579 7.66013 10.5896 8.31773 11.3803C8.68794 11.8273 9.12438 12.1923 9.57993 12.4361C10.0293 12.677 10.484 12.7991 10.931 12.7991Z" fill="#E9B628"/>
<path d="M5.93923 13.5022L5.98237 13.4751L10.7318 17.6549L15.4814 13.4751L15.5245 13.5021C17.1081 14.492 18.791 17.1825 18.791 20.2193V20.2603L18.7547 20.2796C18.7222 20.297 15.4507 22.0001 10.7318 22.0001C6.01305 22.0001 2.74146 20.297 2.70906 20.2797L2.67271 20.2604V20.2193C2.67266 17.1825 4.35571 14.492 5.93923 13.5022Z" fill="#E9B628"/>
</svg>
