<svg width="22" height="22" viewBox="0 0 22 22" fill="none" xmlns="http://www.w3.org/2000/svg">
<g clip-path="url(#clip0_105_303)">
<path d="M19.9381 12.0266C19.9348 11.997 19.9321 11.9682 19.9267 11.9393L19.9778 11.9171L19.8556 11.7191C19.8327 11.6701 19.8059 11.6224 19.7737 11.5774C19.773 11.572 19.7723 11.5674 19.7716 11.5613C19.7616 11.4928 19.7582 11.3981 19.7582 11.2833C19.7582 11.135 19.7649 10.9611 19.7723 10.7657C19.7817 10.5166 19.7924 10.2353 19.7924 9.93184C19.7924 9.34033 19.7562 8.44271 19.4406 7.48262C19.113 6.47754 18.5336 5.57923 17.7191 4.81452C16.8678 4.01221 15.8191 3.42878 14.5958 3.07562C14.6938 2.81914 14.7449 2.5459 14.7449 2.26591C14.7449 1.01647 13.7285 0 12.479 0C11.9292 0 11.4095 0.200063 11 0.558594C10.5918 0.200063 10.0708 0 9.5202 0C8.27208 0.0006875 7.25561 1.01716 7.25428 2.26591C7.25428 2.5459 7.30464 2.81914 7.40398 3.07626C6.18071 3.42873 5.13201 4.01216 4.28067 4.81383C3.46693 5.57923 2.88685 6.47685 2.55921 7.48258C2.24365 8.44267 2.20739 9.34029 2.20739 9.93313C2.20739 10.2373 2.21813 10.5193 2.22754 10.769C2.23493 10.9624 2.24163 11.1349 2.24163 11.2833C2.24163 11.4364 2.23291 11.5344 2.23158 11.57C2.1349 11.7049 2.0765 11.8614 2.06172 12.0265C1.35141 12.8463 0.884766 13.7943 0.884766 15.6003C0.884852 19.6078 4.6661 22 11 22C17.3338 22 21.1151 19.6078 21.1151 15.6003C21.1151 13.7943 20.6485 12.8463 19.9381 12.0266ZM14.1796 3.08769C14.142 3.17028 14.0977 3.24951 14.0494 3.32535C14.0474 3.32466 14.0454 3.32402 14.044 3.32402C14.0944 3.24882 14.1394 3.17028 14.1796 3.08769ZM12.479 1.51061C12.8959 1.5113 13.2337 1.84968 13.2343 2.26591C13.2336 2.68353 12.8966 3.02057 12.479 3.02122C12.0634 3.02053 11.7244 2.68284 11.7237 2.26591C11.7244 1.85036 12.0634 1.5113 12.479 1.51061ZM9.52024 1.51061C9.93716 1.5113 10.2749 1.84968 10.2755 2.26591C10.2749 2.68353 9.93785 3.02057 9.52024 3.02122C9.10396 3.02053 8.76558 2.68284 8.76493 2.26591C8.76558 1.85036 9.10396 1.5113 9.52024 1.51061ZM7.95588 3.32402C7.95454 3.32402 7.95184 3.32471 7.9505 3.32535C7.90216 3.24947 7.85786 3.17028 7.82027 3.08769C7.86057 3.17028 7.90552 3.24882 7.95588 3.32402ZM3.99471 7.95326C4.21897 7.27246 4.60702 6.58363 5.316 5.91426C6.14586 5.13275 7.12138 4.69434 8.11971 4.44795C9.11741 4.20157 10.1319 4.15388 11 4.15456C11.8687 4.15388 12.8825 4.20157 13.8802 4.44795C14.8785 4.69434 15.8527 5.13279 16.6839 5.91426C17.3929 6.58363 17.7809 7.27246 18.0052 7.95326C18.2294 8.63405 18.2818 9.31081 18.2818 9.93253C18.2832 10.2367 18.2711 10.52 18.2617 10.7919C17.8481 10.2944 17.4466 9.68009 17.1096 8.80726C16.0837 6.14586 14.2582 5.27308 10.9999 5.27308C7.74163 5.27308 5.91615 6.14591 4.89027 8.80726C4.55464 9.68073 4.15181 10.2951 3.73823 10.7919C3.72882 10.52 3.71675 10.2373 3.71808 9.93248C3.71808 9.31146 3.77046 8.63405 3.99471 7.95326ZM11 20.4894C8.98111 20.4894 2.39546 20.1362 2.39546 15.6004C2.39546 13.8044 2.90438 13.2928 3.74631 12.4448C4.44189 11.7452 5.3093 10.8738 5.94777 9.21409C6.75679 7.11468 8.03176 6.40634 11 6.40634C13.9688 6.40634 15.2431 7.11464 16.0521 9.21409C16.692 10.8738 17.5581 11.7452 18.2536 12.4448C19.0955 13.2928 19.6044 13.8044 19.6044 15.6004C19.6044 20.1362 13.0182 20.4894 11 20.4894Z" fill="#E9B628"/>
</g>
<defs>
<clipPath id="clip0_105_303">
<rect width="22" height="22" rx="11" fill="white"/>
</clipPath>
</defs>
</svg>
