<svg width="22" height="21" viewBox="0 0 22 21" fill="none" xmlns="http://www.w3.org/2000/svg">
<path d="M19.0153 2.58096C17.0886 0.951286 14.3339 -0.000772967 10.9654 4.70882e-07C7.76905 4.70882e-07 5.03981 0.901528 3.08804 2.50985C2.11256 3.31276 1.33672 4.29271 0.808115 5.40714C0.278826 6.52128 -0.000814624 7.76707 1.78251e-06 9.0897C-0.000814624 10.6887 0.333783 12.1657 1.01024 13.4543C1.65434 14.686 2.61285 15.7334 3.83324 16.5525C3.54471 17.7672 3.139 19.5032 3.139 19.504C3.12044 19.582 3.11072 19.6632 3.11154 19.7456C3.11077 20.0718 3.2627 20.3858 3.52692 20.5882L3.52855 20.5894V20.5898C3.7177 20.7337 3.94556 20.8072 4.17351 20.8072C4.34487 20.8072 4.5186 20.7656 4.67539 20.6812L4.69077 20.6731L4.70611 20.6638C4.70693 20.6634 4.92435 20.5345 5.25895 20.3365C5.76001 20.0399 6.52373 19.5885 7.20504 19.1873C7.54531 18.9868 7.86535 18.7989 8.12071 18.6498C8.37526 18.5011 8.57085 18.3876 8.64364 18.3476L8.64686 18.3456L8.65167 18.3428C9.60128 17.8045 10.3577 17.714 10.9655 17.7107C13.4879 17.7071 16.1738 17.2181 18.3187 15.8794C19.3887 15.209 20.3198 14.3148 20.9745 13.17C21.6307 12.026 22.0008 10.6411 22 9.03809C22.0048 6.51686 20.9437 4.20664 19.0153 2.58096ZM19.5383 12.3475C19.1592 13.0082 18.663 13.5642 18.0674 14.0354C17.1743 14.7413 16.0534 15.2509 14.8241 15.5794C13.5953 15.9088 12.261 16.0559 10.9655 16.0554C10.1702 16.0522 9.05897 16.2021 7.83939 16.9012V16.9008C7.70443 16.976 7.40382 17.151 7.00778 17.3829C6.43964 17.7163 5.69207 18.1571 5.06817 18.5264C5.2201 17.8779 5.39713 17.1267 5.52883 16.5751V16.5743C5.55066 16.4822 5.56682 16.3823 5.56682 16.2688C5.56845 16.1088 5.5272 15.9136 5.43512 15.7512C5.36637 15.6295 5.27828 15.5338 5.20154 15.4683C5.08355 15.3701 4.99546 15.3277 4.94613 15.3006L4.89603 15.2752L4.89036 15.272C3.80983 14.5757 3.01456 13.7109 2.47638 12.6858C1.93811 11.6589 1.65524 10.4608 1.65524 9.0897C1.65524 7.99825 1.88233 7.00459 2.30338 6.11682C2.93537 4.78736 4.00783 3.68457 5.47388 2.89863C6.93834 2.11428 8.79957 1.65524 10.9655 1.65524C14.0285 1.65606 16.3767 2.51595 17.9462 3.84459C19.5133 5.17769 20.3392 6.97267 20.3449 9.03796C20.3432 10.3917 20.0409 11.4662 19.5383 12.3475Z" fill="#E9B628"/>
<path d="M5.80348 7.87598C5.10404 7.87598 4.53711 8.44334 4.53711 9.14282C4.53711 9.84227 5.10404 10.4092 5.80348 10.4092C6.50336 10.4092 7.07029 9.84231 7.07029 9.14282C7.07033 8.44334 6.5034 7.87598 5.80348 7.87598Z" fill="#E9B628"/>
<path d="M10.743 7.87598C10.0435 7.87598 9.47656 8.44334 9.47656 9.14282C9.47656 9.84227 10.0435 10.4092 10.743 10.4092C11.4429 10.4092 12.0098 9.84231 12.0098 9.14282C12.0098 8.44334 11.4429 7.87598 10.743 7.87598Z" fill="#E9B628"/>
<path d="M15.6838 7.87598C14.9844 7.87598 14.417 8.44334 14.417 9.14282C14.417 9.84227 14.9844 10.4092 15.6838 10.4092C16.3837 10.4092 16.9507 9.84231 16.9507 9.14282C16.9507 8.44334 16.3837 7.87598 15.6838 7.87598Z" fill="#E9B628"/>
</svg>
